<svg xmlns="http://www.w3.org/2000/svg" id="Layer_1" enable-background="new 0 0 64 64" viewBox="0 0 64 64"><path fill="#d3d3d3" d="M56.62,54.92c-0.83,0-1.5-0.67-1.5-1.5v-7.96H8.87v7.96c0,0.83-0.67,1.5-1.5,1.5s-1.5-0.67-1.5-1.5v-9.46
			c0-0.83,0.67-1.5,1.5-1.5h49.25c0.83,0,1.5,0.67,1.5,1.5v9.46C58.12,54.25,57.45,54.92,56.62,54.92z"/><path fill="#d3d3d3" d="M32.1,56.94c-0.83,0-1.5-0.67-1.5-1.5V31.73c0-0.83,0.67-1.5,1.5-1.5c0.83,0,1.5,0.67,1.5,1.5v23.71
			C33.6,56.27,32.93,56.94,32.1,56.94z"/><rect width="9.57" height="9.57" x="51.84" y="53.42" fill="#76bfe9"/><rect width="9.57" height="9.57" x="27.32" y="52.42" fill="#f4c95a" transform="rotate(45.001 32.106 57.21)"/><rect width="9.57" height="9.57" x="2.58" y="53.42" fill="#f56e57"/><path fill="none" d="M47.94,16.16c-0.01,0.01-0.01,0.01-0.02,0.02"/><path fill="#84dbff" d="M64,22.46c0,5.12-4.14,9.27-9.26,9.27H8.17C3.65,31.73,0,28.06,0,23.55c0-4.52,3.65-8.19,8.17-8.19
			c1,0,1.97,0.18,2.84,0.53c-0.53-1.33-0.83-2.79-0.83-4.31c0-6.39,5.17-11.56,11.55-11.56c5.02,0,9.28,3.2,10.89,7.66
			c1.43-2.89,4.4-4.87,7.84-4.87c4.84,0,8.76,3.92,8.76,8.77c0,1.68-0.47,3.25-1.28,4.58c1.7-1.83,4.12-2.96,6.8-2.96
			C59.86,13.2,64,17.34,64,22.46z"/><path fill="none" d="M47.94,16.16c-0.01,0.01-0.01,0.01-0.02,0.02"/></svg>