<svg xmlns="http://www.w3.org/2000/svg" id="Layer_1" enable-background="new 0 0 80 80" viewBox="0 0 80 80"><path id="XMLID_321_" fill="#e78125" d="M52.1625175,7.8794665
			c2.0768433,0.126534,4.0780678,0.5328975,5.967083,1.4072528c3.1014977,1.4355135,4.7306709,4.300765,4.3694992,7.694417
			c-0.076786,0.7215614-0.2289124,1.4356804-0.3603325,2.1506882c-0.156517,0.8518143-0.3134766,1.6698151,0.6502686,2.2261982
			c0.2564545,0.148077,0.4946976,0.5507755,0.5140762,0.8512039c0.1492958,2.3183632,0.3451233,4.6829758-1.692524,6.4090347
			c-0.6002998,0.5084667-0.8333817,1.1507969-1.0697365,1.8412094c-1.0964966,3.2027683-3.2751122,5.3519573-6.4393501,6.5071964
			c-1.6809731,0.613739-3.3708305,0.5315094-5.0160522-0.1240349c-2.4395103-0.9720154-4.3439598-2.6053543-5.4712181-4.9802399
			c-0.7091789-1.4940872-1.3949242-2.9191074-2.4860382-4.2313633c-1.2521782-1.5060253-1.0636292-3.5373421-0.888401-5.4290771
			c0.0182114-0.1967125,0.1343613-0.4578876,0.2894325-0.5568829c1.345459-0.858532,0.9487572-2.0494156,0.7264481-3.270504
			c-1.0407562-5.7175131,2.0049973-9.5104771,8.2218742-10.2740669C50.3681679,7.991065,51.2672844,7.9514227,52.1625175,7.8794665z
			"/><path id="XMLID_320_" fill="#e78125" d="M50.0241013,43.7699623
			c0.0509109,0.149353,0.1447983,0.1478539,0.2610626,0.147522c0.956749-0.002388,1.9135551-0.004776,2.8703041,0.0020561
			c0.1591835,0.0011101,0.2359657-0.0420303,0.2958183-0.2129288c0.4389572-1.2531776,0.8921814-2.5008049,1.3401299-3.7504883
			c0.0260925-0.0726242,0.0789528-0.141468,0.0381432-0.2360802c-2.0484734,0-4.098278,0-6.1714592,0
			c0.0039978,0.0489731,0.0007782,0.0777893,0.0091591,0.1021614C49.1198196,41.1380119,49.575264,42.452713,50.0241013,43.7699623z
			"/><path id="XMLID_319_" fill="#e78125" d="M77.4978409,71.8286285
			c-0.0704575-1.8022919-0.141304-3.6048584-0.2449646-5.4053192c-0.3055344-5.3070946-0.5810852-10.6165199-0.9616852-15.9183998
			c-0.200882-2.7974586-1.3862686-5.0217705-3.9761887-6.4773254c-3.1822205-1.7885208-6.7195663-2.7161217-10.1805115-3.7959061
			c-1.1911087-0.3716087-2.4315147-0.560936-3.6791992-0.5586586l-1.5971375,0.0028305
			c-0.0890579,0.0001678-0.162178,0.0709572-0.1644554,0.1600113c-0.0061073,0.2391891-0.056076,0.5043068-0.1767807,0.788353
			c-0.1151543,0.3212509-0.2307472,0.6425552-0.346344,0.963913c-0.3220253,0.8949547-0.6549339,1.8203888-0.9735184,2.7298889
			c-0.0088272,0.0252647-0.0181007,0.0501938-0.0276489,0.074791c-0.0151024,0.0387535-0.015213,0.0818367,0.0005531,0.1203156
			c0.056633,0.1385269,0.0995522,0.2848816,0.1262016,0.4377861c0.3723297,2.1369209,0.9669647,5.2426376,1.4915352,7.9827995
			c0.3160858,1.6508255,0.614624,3.2101517,0.8241653,4.34729c0.11343,0.6155167,0.194046,1.0706253,0.2464027,1.3913193
			c0.0315361,0.1927719,0.0535812,0.3416252,0.0674057,0.4550552c0.0293694,0.2407417,0.1187019,0.9733505-0.4554443,1.6102409
			c-1.1654015,1.2925987-2.3536758,2.6194038-3.5029221,3.9025612l-0.6956863,0.7767487
			c-0.3947563,0.4406204-0.9593582,0.6934662-1.5489998,0.6934662h-0.0000534c-0.5910263,0-1.1564636-0.2538452-1.5511665-0.6964035
			c-0.1867752-0.2093201-0.442173-0.4958115-0.7361603-0.8256683c-1.1343079-1.2724419-2.848484-3.1953812-3.4010925-3.8065643
			c-0.2424088-0.2680588-0.5217361-0.7322197-0.4759331-1.4206886c0.0048866-0.073513,0.013382-0.1554604,0.0267067-0.257843
			c0.0182686-0.1409149,0.047081-0.3302994,0.0880013-0.5790901c0.0699043-0.4248543,0.1753387-1.0239334,0.3223038-1.8314934
			c0.2701683-1.484539,0.6428871-3.4636688,1.0032806-5.3776093c0.4653244-2.4712181,0.9465294-5.0266037,1.1769447-6.3610649
			c0.0251503-0.1453018,0.0648499-0.2846603,0.1170959-0.4170227c0.0147133-0.0373116,0.0140495-0.0789528,0-0.1165428
			c-0.0067177-0.0178223-0.0131035-0.0356445-0.0192108-0.0534668c-0.3110313-0.9127769-0.6309471-1.8408203-0.940258-2.7383308
			c-0.1384163-0.4015884-0.2768326-0.8031197-0.4149704-1.2048187c-0.0820618-0.2383537-0.1002159-0.4415627-0.1056595-0.5782013
			c-0.0070496-0.0856705-0.0787277-0.1516304-0.1647301-0.1514664l-1.290657,0.0022774
			c-1.4312401-0.017765-2.854702,0.2154236-4.2054367,0.6889687c-2.8956757,1.0151024-5.7606506,2.0199356-8.6265678,3.0221024
			c-3.3538456,1.1727829-4.9482059,3.6772003-5.2289791,7.0825119c-0.3430691,4.1617966-0.6145134,8.3298645-0.8762436,12.4977646
			c-0.182333,2.9046707-0.3699398,5.8124542-0.4180222,8.7211838c-0.0400867,2.4194641,1.0571327,3.4584427,3.4491177,3.570488
			c0.1264782,0.0059433,30.0041428,0.0135498,44.8164978-0.0039978
			C76.3927917,75.2728577,77.5813446,73.9665985,77.4978409,71.8286285z"/><path id="XMLID_318_" fill="#e78125" d="M53.2424164,45.0647278h-3.0126648
			c-0.1137047,0-0.2110367,0.0856171-0.2315254,0.2040443c-0.5876389,3.402813-2.6940765,14.1595306-2.5920296,14.2724037
			c0.7008514,0.7751389,3.236248,3.6221809,4.1455841,4.6415558c0.0927773,0.1039963,0.2490692,0.103775,0.3420677,0
			c1.41436-1.5788689,2.8055649-3.1341972,4.2024918-4.6836967c0.0981064-0.1088219-1.7950172-9.4819374-2.6225128-14.2306519
			C53.4532318,45.150177,53.355957,45.0647278,53.2424164,45.0647278z"/><path id="XMLID_317_" fill="#e78125" d="M23.885046,13.6472263c-3.7004089,0-7.3662853,0-11.0749674,0
			c1.8669729,1.5760384,3.6989107,3.1224842,5.5370111,4.6741486C20.191576,16.7646027,22.0287895,15.2139368,23.885046,13.6472263z
			"/><path id="XMLID_270_" fill="#e78125" d="M18.9448376,19.643568
			c-0.1171513,0.098774-0.2295265,0.2053204-0.3801575,0.2545128c-0.3329086,0.1088219-0.5772038-0.049305-0.8183346-0.253458
			c-1.8268852-1.5464458-3.6571026-3.0888939-5.4870977-4.6315632c-0.0303698-0.0255957-0.0516901-0.0737324-0.1033258-0.0624065
			c0,2.5480022,0,5.0939484,0,7.6418953c4.1308689,0,8.2519112,0,12.3786716,0c0-2.5542202,0-5.0974464,0-7.6623268
			c-0.0443611,0.0369768-0.0726776,0.0603514-0.100771,0.0840044C22.6042156,16.5573959,20.7746658,18.1006203,18.9448376,19.643568
			z"/><path id="XMLID_230_" fill="#e78125" d="M30.4603691,25.7179737
			c1.6338348-1.9234924,2.6963005-4.5896435,2.6963005-7.5966434c0-7.4048166-6.8633156-13.4075994-15.3293171-13.4075994
			c-8.4662256,0-15.3293171,6.0027828-15.3293171,13.4075994s6.8630915,13.4073772,15.3293171,13.4073772
			c3.4228001,0,5.5578861-0.7001286,7.8089581-1.8674717c0.168787-0.0877247,8.5610542,0.1259232,8.5610542,0.1259232
			S30.2900829,25.9184074,30.4603691,25.7179737z M24.4937305,23.9898624
			c-4.0920601-0.0000553-8.1841202-0.0000553-12.2761793-0.0001678c-0.8686371,0-1.4600534-0.587307-1.460165-1.4526691
			c-0.000555-2.9385967-0.0004997-5.8771935-0.0000553-8.8157892c0.0001669-0.8885136,0.5840883-1.4682713,1.4770994-1.4683266
			c2.0378122-0.0002222,4.0756245-0.0000553,6.1133823-0.0002222c2.0433083-0.0001106,4.0866184-0.0001106,6.1299267-0.0001106
			c0.8691921,0,1.4597759,0.5857534,1.4599991,1.4525032c0.0008316,2.9495888,0.0008888,5.8991795,0.0001106,8.8487682
			C25.9376278,23.3966122,25.3392143,23.9898624,24.4937305,23.9898624z"/><g><path id="XMLID_229_" fill="#1a3342" d="M52.1625175,7.8794665
			c2.0768433,0.126534,4.0780678,0.5328975,5.967083,1.4072528c3.1014977,1.4355135,4.7306709,4.300765,4.3694992,7.694417
			c-0.076786,0.7215614-0.2289124,1.4356804-0.3603325,2.1506882c-0.156517,0.8518143-0.3134766,1.6698151,0.6502686,2.2261982
			c0.2564545,0.148077,0.4946976,0.5507755,0.5140762,0.8512039c0.1492958,2.3183632,0.3451233,4.6829758-1.692524,6.4090347
			c-0.6002998,0.5084667-0.8333817,1.1507969-1.0697365,1.8412094c-1.0964966,3.2027683-3.2751122,5.3519573-6.4393501,6.5071964
			c-1.6809731,0.613739-3.3708305,0.5315094-5.0160522-0.1240349c-2.4395103-0.9720154-4.3439598-2.6053543-5.4712181-4.9802399
			c-0.7091789-1.4940872-1.3949242-2.9191074-2.4860382-4.2313633c-1.2521782-1.5060253-1.0636292-3.5373421-0.888401-5.4290771
			c0.0182114-0.1967125,0.1343613-0.4578876,0.2894325-0.5568829c1.345459-0.858532,0.9487572-2.0494156,0.7264481-3.270504
			c-1.0407562-5.7175131,2.0049973-9.5104771,8.2218742-10.2740669C50.3681679,7.991065,51.2672844,7.9514227,52.1625175,7.8794665z
			"/><path id="XMLID_228_" fill="#337bbc" d="M50.0241013,43.7699623
			c0.0509109,0.149353,0.1447983,0.1478539,0.2610626,0.147522c0.956749-0.002388,1.9135551-0.004776,2.8703041,0.0020561
			c0.1591835,0.0011101,0.2359657-0.0420303,0.2958183-0.2129288c0.4389572-1.2531776,0.8921814-2.5008049,1.3401299-3.7504883
			c0.0260925-0.0726242,0.0789528-0.141468,0.0381432-0.2360802c-2.0484734,0-4.098278,0-6.1714592,0
			c0.0039978,0.0489731,0.0007782,0.0777893,0.0091591,0.1021614C49.1198196,41.1380119,49.575264,42.452713,50.0241013,43.7699623z
			"/><path id="XMLID_227_" fill="#1a3342" d="M77.4978409,71.8286285
			c-0.0704575-1.8022919-0.141304-3.6048584-0.2449646-5.4053192c-0.3055344-5.3070946-0.5810852-10.6165199-0.9616852-15.9183998
			c-0.200882-2.7974586-1.3862686-5.0217705-3.9761887-6.4773254c-3.1822205-1.7885208-6.7195663-2.7161217-10.1805115-3.7959061
			c-1.1911087-0.3716087-2.4315147-0.560936-3.6791992-0.5586586l-1.5971375,0.0028305
			c-0.0890579,0.0001678-0.162178,0.0709572-0.1644554,0.1600113c-0.0061073,0.2391891-0.056076,0.5043068-0.1767807,0.788353
			c-0.1151543,0.3212509-0.2307472,0.6425552-0.346344,0.963913c-0.3220253,0.8949547-0.6549339,1.8203888-0.9735184,2.7298889
			c-0.0088272,0.0252647-0.0181007,0.0501938-0.0276489,0.074791c-0.0151024,0.0387535-0.015213,0.0818367,0.0005531,0.1203156
			c0.056633,0.1385269,0.0995522,0.2848816,0.1262016,0.4377861c0.3723297,2.1369209,0.9669647,5.2426376,1.4915352,7.9827995
			c0.3160858,1.6508255,0.614624,3.2101517,0.8241653,4.34729c0.11343,0.6155167,0.194046,1.0706253,0.2464027,1.3913193
			c0.0315361,0.1927719,0.0535812,0.3416252,0.0674057,0.4550552c0.0293694,0.2407417,0.1187019,0.9733505-0.4554443,1.6102409
			c-1.1654015,1.2925987-2.3536758,2.6194038-3.5029221,3.9025612l-0.6956863,0.7767487
			c-0.3947563,0.4406204-0.9593582,0.6934662-1.5489998,0.6934662h-0.0000534c-0.5910263,0-1.1564636-0.2538452-1.5511665-0.6964035
			c-0.1867752-0.2093201-0.442173-0.4958115-0.7361603-0.8256683c-1.1343079-1.2724419-2.848484-3.1953812-3.4010925-3.8065643
			c-0.2424088-0.2680588-0.5217361-0.7322197-0.4759331-1.4206886c0.0048866-0.073513,0.013382-0.1554604,0.0267067-0.257843
			c0.0182686-0.1409149,0.047081-0.3302994,0.0880013-0.5790901c0.0699043-0.4248543,0.1753387-1.0239334,0.3223038-1.8314934
			c0.2701683-1.484539,0.6428871-3.4636688,1.0032806-5.3776093c0.4653244-2.4712181,0.9465294-5.0266037,1.1769447-6.3610649
			c0.0251503-0.1453018,0.0648499-0.2846603,0.1170959-0.4170227c0.0147133-0.0373116,0.0140495-0.0789528,0-0.1165428
			c-0.0067177-0.0178223-0.0131035-0.0356445-0.0192108-0.0534668c-0.3110313-0.9127769-0.6309471-1.8408203-0.940258-2.7383308
			c-0.1384163-0.4015884-0.2768326-0.8031197-0.4149704-1.2048187c-0.0820618-0.2383537-0.1002159-0.4415627-0.1056595-0.5782013
			c-0.0070496-0.0856705-0.0787277-0.1516304-0.1647301-0.1514664l-1.290657,0.0022774
			c-1.4312401-0.017765-2.854702,0.2154236-4.2054367,0.6889687c-2.8956757,1.0151024-5.7606506,2.0199356-8.6265678,3.0221024
			c-3.3538456,1.1727829-4.9482059,3.6772003-5.2289791,7.0825119c-0.3430691,4.1617966-0.6145134,8.3298645-0.8762436,12.4977646
			c-0.182333,2.9046707-0.3699398,5.8124542-0.4180222,8.7211838c-0.0400867,2.4194641,1.0571327,3.4584427,3.4491177,3.570488
			c0.1264782,0.0059433,30.0041428,0.0135498,44.8164978-0.0039978
			C76.3927917,75.2728577,77.5813446,73.9665985,77.4978409,71.8286285z"/><path id="XMLID_226_" fill="#337bbc" d="M53.2424164,45.0647278h-3.0126648
			c-0.1137047,0-0.2110367,0.0856171-0.2315254,0.2040443c-0.5876389,3.402813-2.6940765,14.1595306-2.5920296,14.2724037
			c0.7008514,0.7751389,3.236248,3.6221809,4.1455841,4.6415558c0.0927773,0.1039963,0.2490692,0.103775,0.3420677,0
			c1.41436-1.5788689,2.8055649-3.1341972,4.2024918-4.6836967c0.0981064-0.1088219-1.7950172-9.4819374-2.6225128-14.2306519
			C53.4532318,45.150177,53.355957,45.0647278,53.2424164,45.0647278z"/><path id="XMLID_225_" fill="#347bbb" d="M23.885046,13.6472263c-3.7004089,0-7.3662853,0-11.0749674,0
			c1.8669729,1.5760384,3.6989107,3.1224842,5.5370111,4.6741486C20.191576,16.7646027,22.0287895,15.2139368,23.885046,13.6472263z
			"/><path id="XMLID_224_" fill="#347bbb" d="M18.9448376,19.643568c-0.1171513,0.098774-0.2295265,0.2053204-0.3801575,0.2545128
			c-0.3329086,0.1088219-0.5772038-0.049305-0.8183346-0.253458c-1.8268852-1.5464458-3.6571026-3.0888939-5.4870977-4.6315632
			c-0.0303698-0.0255957-0.0516901-0.0737324-0.1033258-0.0624065c0,2.5480022,0,5.0939484,0,7.6418953
			c4.1308689,0,8.2519112,0,12.3786716,0c0-2.5542202,0-5.0974464,0-7.6623268
			c-0.0443611,0.0369768-0.0726776,0.0603514-0.100771,0.0840044C22.6042156,16.5573959,20.7746658,18.1006203,18.9448376,19.643568
			z"/><path id="XMLID_221_" fill="#347bbb" d="M30.4603691,25.7179737c1.6338348-1.9234924,2.6963005-4.5896435,2.6963005-7.5966434
			c0-7.4048166-6.8633156-13.4075994-15.3293171-13.4075994c-8.4662256,0-15.3293171,6.0027828-15.3293171,13.4075994
			s6.8630915,13.4073772,15.3293171,13.4073772c3.4228001,0,5.5578861-0.7001286,7.8089581-1.8674717
			c0.168787-0.0877247,8.5610542,0.1259232,8.5610542,0.1259232S30.2900829,25.9184074,30.4603691,25.7179737z
			 M24.4937305,23.9898624c-4.0920601-0.0000553-8.1841202-0.0000553-12.2761793-0.0001678
			c-0.8686371,0-1.4600534-0.587307-1.460165-1.4526691c-0.000555-2.9385967-0.0004997-5.8771935-0.0000553-8.8157892
			c0.0001669-0.8885136,0.5840883-1.4682713,1.4770994-1.4683266c2.0378122-0.0002222,4.0756245-0.0000553,6.1133823-0.0002222
			c2.0433083-0.0001106,4.0866184-0.0001106,6.1299267-0.0001106c0.8691921,0,1.4597759,0.5857534,1.4599991,1.4525032
			c0.0008316,2.9495888,0.0008888,5.8991795,0.0001106,8.8487682
			C25.9376278,23.3966122,25.3392143,23.9898624,24.4937305,23.9898624z"/></g></svg>