<svg xmlns="http://www.w3.org/2000/svg" viewBox="0 0 64 64"><g data-name="Data recovery"><path fill="#78b9eb" d="M59,32a15.029,15.029,0,0,1-.54,4h-4.5A10.033,10.033,0,0,0,55,32,11,11,0,1,0,43,42.95V38l9,7-9,7V46.96a14.971,14.971,0,0,1-6-1.69c-.16-.09-.32-.18-.47-.27a15.057,15.057,0,0,1-5.22-5,15.017,15.017,0,0,1,5.21-21l.48-.27A15.005,15.005,0,0,1,59,32Z"/><path fill="#78b9eb" d="M37 45.27V61H5V45H36.53C36.68 45.09 36.84 45.18 37 45.27zM29 32a14.881 14.881 0 0 0 2.31 8H5V24H31.32A14.864 14.864 0 0 0 29 32zM37 3V18.73l-.48.27H5V3z"/><rect width="6" height="2" x="8" y="7" fill="#006df0"/><rect width="3" height="2" x="16" y="7" fill="#006df0"/><rect width="3" height="2" x="22" y="7" fill="#006df0"/><rect width="6" height="2" x="8" y="13" fill="#006df0"/><rect width="3" height="2" x="16" y="13" fill="#006df0"/><rect width="3" height="2" x="22" y="13" fill="#006df0"/><rect width="6" height="2" x="8" y="28" fill="#006df0"/><rect width="3" height="2" x="16" y="28" fill="#006df0"/><rect width="3" height="2" x="22" y="28" fill="#006df0"/><rect width="6" height="2" x="8" y="34" fill="#006df0"/><rect width="3" height="2" x="16" y="34" fill="#006df0"/><rect width="3" height="2" x="22" y="34" fill="#006df0"/><rect width="6" height="2" x="8" y="49" fill="#006df0"/><rect width="3" height="2" x="16" y="49" fill="#006df0"/><rect width="3" height="2" x="22" y="49" fill="#006df0"/><rect width="6" height="2" x="8" y="55" fill="#006df0"/><rect width="3" height="2" x="16" y="55" fill="#006df0"/><rect width="3" height="2" x="22" y="55" fill="#006df0"/><path fill="#006df0" d="M44,16a15.769,15.769,0,0,0-6,1.18V3a1,1,0,0,0-1-1H5A1,1,0,0,0,4,3V19a1,1,0,0,0,1,1H6v3H5a1,1,0,0,0-1,1V40a1,1,0,0,0,1,1H6v3H5a1,1,0,0,0-1,1V61a1,1,0,0,0,1,1H37a1,1,0,0,0,1-1V46.82a15.711,15.711,0,0,0,4,1.05V52a1.012,1.012,0,0,0,.56.9A.976.976,0,0,0,43,53a.961.961,0,0,0,.61-.21l9-7a1,1,0,0,0,0-1.58l-9-7a1,1,0,0,0-1.05-.11A1.012,1.012,0,0,0,42,38v3.8a10.014,10.014,0,0,1-4-1.78v-16A9.98,9.98,0,0,1,54,32a9.023,9.023,0,0,1-.95,3.58,1,1,0,0,0,.07.96.985.985,0,0,0,.84.46h4.5a1,1,0,0,0,.96-.73A15.817,15.817,0,0,0,60,32,16.021,16.021,0,0,0,44,16ZM6,4H36V18H6ZM33.45,20a16.207,16.207,0,0,0-2.67,3H8V20ZM6,25H29.63a15.889,15.889,0,0,0-.01,14H6ZM30.8,41a16.153,16.153,0,0,0,2.66,3H8V41ZM36,60H6V46H36ZM57.68,35H55.44A9.417,9.417,0,0,0,56,32,12,12,0,1,0,42.91,43.95a.986.986,0,0,0,.76-.26,1,1,0,0,0,.33-.74V40.04L50.37,45,44,49.96v-3a1,1,0,0,0-.94-1A14,14,0,1,1,58,32,14.352,14.352,0,0,1,57.68,35ZM36,26.03V38.02a9.985,9.985,0,0,1,0-11.99Z"/></g></svg>