<svg xmlns="http://www.w3.org/2000/svg" width="80" height="80" viewBox="0 0 80 80"><path fill-rule="evenodd" d="M 40 0 A 40 40 0 0 0 0 40 A 40 40 0 0 0 40 80 A 40 40 0 0 0 80 40 A 40 40 0 0 0 40 0 z M 39.5 17 C 40.345274 17 41.216464 17.446551 42.115234 18.119141 C 43.014005 18.791731 43.931846 19.715291 44.767578 20.775391 C 46.439041 22.895691 47.800781 25.545401 47.800781 27.900391 C 47.800781 29.898391 47.012175 31.675422 45.833984 33.107422 L 50.123047 35.251953 C 50.754378 35.567653 51.430994 35.861447 51.994141 36.310547 C 52.557287 36.759547 53 37.428881 53 38.300781 L 53 39 L 53.5 39 C 54.322357 39 55 39.6777 55 40.5 L 55 58 L 58 58 L 58 59.5 C 58 60.8764 56.876351 62 55.5 62 L 23.5 62 C 22.123649 62 21 60.8764 21 59.5 L 21 58 L 24 58 L 24 40.5 C 24 39.6777 24.677643 39 25.5 39 L 26 39 L 26 38.300781 C 26 37.428881 26.442713 36.759547 27.005859 36.310547 C 27.569006 35.861447 28.245622 35.567653 28.876953 35.251953 L 33.166016 33.107422 C 31.987825 31.675422 31.199219 29.898391 31.199219 27.900391 C 31.199219 25.545401 32.560959 22.895691 34.232422 20.775391 C 35.068154 19.715291 35.985995 18.791731 36.884766 18.119141 C 37.783536 17.446551 38.654726 17 39.5 17 z M 39.5 18 C 39.045274 18 38.292001 18.315542 37.484375 18.919922 C 36.676749 19.524302 35.807041 20.393031 35.017578 21.394531 C 33.438651 23.397431 32.199219 25.947801 32.199219 27.900391 C 32.199219 29.868691 32.978915 31.647137 34.244141 32.960938 L 34.716797 33.451172 L 29.322266 36.146484 C 28.665247 36.474984 28.043478 36.76315 27.628906 37.09375 C 27.214335 37.42425 27 37.732281 27 38.300781 L 27 39 L 52 39 L 52 38.300781 C 52 37.732281 51.785665 37.42425 51.371094 37.09375 C 50.956522 36.76315 50.334753 36.474984 49.677734 36.146484 L 44.283203 33.451172 L 44.755859 32.960938 C 46.021085 31.647137 46.800781 29.868691 46.800781 27.900391 C 46.800781 25.947801 45.561349 23.397431 43.982422 21.394531 C 43.192959 20.393031 42.323251 19.524302 41.515625 18.919922 C 40.707999 18.315542 39.954726 18 39.5 18 z M 39.5 22.201172 C 42.642098 22.201172 45.199219 24.758401 45.199219 27.900391 C 45.199219 29.487191 44.520325 31.476872 43.501953 33.138672 C 42.483582 34.800472 41.11591 36.201172 39.5 36.201172 C 37.88409 36.201172 36.516418 34.800472 35.498047 33.138672 C 34.479675 31.476872 33.800781 29.487191 33.800781 27.900391 C 33.800781 24.758401 36.357902 22.201172 39.5 22.201172 z M 39.5 23.201172 C 36.898338 23.201172 34.800781 25.298801 34.800781 27.900391 C 34.800781 29.185391 35.419936 31.096987 36.351562 32.617188 C 37.283192 34.137487 38.51591 35.201172 39.5 35.201172 C 40.48409 35.201172 41.716808 34.137488 42.648438 32.617188 C 43.580065 31.096987 44.199219 29.185391 44.199219 27.900391 C 44.199219 25.298801 42.101662 23.201172 39.5 23.201172 z M 25.5 40 C 25.214337 40 25 40.2144 25 40.5 L 25 58.5 C 25 58.7857 25.214337 59 25.5 59 L 53.5 59 C 53.785663 59 54 58.7857 54 58.5 L 54 40.5 C 54 40.2144 53.785663 40 53.5 40 L 25.5 40 z M 40.646484 46.658203 C 40.691684 47.334703 40.151139 47.921719 39.474609 48.011719 C 39.384409 47.335219 39.924864 46.748203 40.646484 46.658203 z M 38.482422 47.966797 C 38.978532 47.966797 39.248565 48.191406 39.609375 48.191406 C 40.015295 48.191406 40.285308 47.966797 40.736328 47.966797 C 41.142238 47.966797 41.594794 48.191934 41.820312 48.552734 C 41.414392 48.778334 41.1875 49.138666 41.1875 49.634766 C 41.1875 50.130866 41.50388 50.628194 42 50.808594 C 41.72939 51.530194 41.142604 52.341797 40.646484 52.341797 C 40.240574 52.341797 40.015295 52.115234 39.609375 52.115234 C 39.203465 52.115234 38.978354 52.341797 38.527344 52.341797 C 37.986124 52.341797 37.309316 51.393553 37.128906 50.626953 C 36.948506 49.905253 36.904459 49.184134 37.355469 48.552734 C 37.580979 48.237134 38.076502 47.966797 38.482422 47.966797 z M 22 59 L 22 59.5 C 22 60.3397 22.660351 61 23.5 61 L 55.5 61 C 56.339649 61 57 60.3397 57 59.5 L 57 59 L 54.90625 59 C 54.697243 59.5781 54.146074 60 53.5 60 L 25.5 60 C 24.853926 60 24.302757 59.5781 24.09375 59 L 22 59 z "/></svg>