<svg xmlns="http://www.w3.org/2000/svg" viewBox="0 0 32 32"><defs><linearGradient id="a" x1="16" x2="16" y1="30" y2="2" gradientUnits="userSpaceOnUse"><stop offset="0" stop-color="#00f260"/><stop offset="1" stop-color="#0575e6"/></linearGradient></defs><path fill="url(#a)" d="M21,17.76h-.65c2-1.21,3.91-2.91,3.91-4.93,0-2.68-3.36-4.81-6.18-6.12a4.88,4.88,0,0,0-4.16,0C11.1,8,7.74,10.15,7.74,12.83c0,2,1.94,3.72,3.91,4.93H11a5,5,0,0,0-5,5v3H26v-3A5,5,0,0,0,21,17.76ZM20.06,14a10.24,10.24,0,0,1,1.26.56,10.53,10.53,0,0,1-1.78,1.37A5,5,0,0,0,20.06,14Zm-2-.51c0,.08,0,.16,0,.24,0,1.44-1.29,2.8-2.08,3.49-.79-.69-2.08-2.05-2.08-3.49,0-.08,0-.16,0-.24A13.07,13.07,0,0,1,18.07,13.46ZM11.94,14a5,5,0,0,0,.52,1.93,10.53,10.53,0,0,1-1.78-1.37A10.24,10.24,0,0,1,11.94,14Zm2.83-5.45a2.84,2.84,0,0,1,2.46,0c3.05,1.42,4.95,3,5,4.25a11.92,11.92,0,0,0-3.09-1.15,14.64,14.64,0,0,0-6.32,0,11.92,11.92,0,0,0-3.09,1.15C9.82,11.56,11.72,9.94,14.77,8.52ZM24,23.76H8v-1a3,3,0,0,1,3-3h4.82l.18.06.18-.06H21a3,3,0,0,1,3,3ZM28,2H4A2,2,0,0,0,2,4V28a2,2,0,0,0,2,2H28a2,2,0,0,0,2-2V4A2,2,0,0,0,28,2ZM4,28V4H28V28Z"/></svg>