<svg xmlns="http://www.w3.org/2000/svg" width="32" height="32" viewBox="0 0 8.467 8.467"><path d="m 4.2322901,0.79270508 c -0.4987549,0 -1.0805849,0.1449694 -1.5564939,0.52193252 -0.475909,0.3769629 -0.824239,0.999655 -0.824239,1.861385 0,0.911341 0.571952,1.7988529 1.117244,2.4804688 0.545292,0.6816162 1.0898561,1.158068 1.0898561,1.158068 0.09994,0.08795 0.2493888,0.08795 0.3493328,0 0,0 0.5445731,-0.4764529 1.0898561,-1.158068 C 6.0431291,4.9748766 6.61509,4.0873636 6.61509,3.1760226 6.61509,2.3142916 6.2667603,1.6916005 5.790851,1.3146376 5.3149421,0.93767348 4.7310461,0.79270508 4.2322901,0.79270508 Z m 0,0.52968352 c 0.394231,0 0.871247,0.1216819 1.230416,0.4061769 0.3591689,0.2844951 0.6232181,0.7216881 0.6232181,1.4474571 0,0.6761589 -0.4777161,1.5143489 -0.999939,2.1481889 C 4.6428793,5.8620245 4.4373472,6.0508166 4.2343573,6.2543876 4.0436681,6.0579646 3.8008482,5.8421355 3.3806632,5.3242115 2.8632432,4.6864355 2.3807242,3.8521786 2.3807242,3.1760226 c 0,-0.725767 0.264048,-1.162962 0.623217,-1.4474571 0.35917,-0.284494 0.834118,-0.4061769 1.2283489,-0.4061769 z m 0,0.534851 c -0.7274929,0 -1.3223999,0.596975 -1.3223999,1.324467 0,0.7274929 0.594907,1.3224 1.3223999,1.3224 0.7274931,0 1.3244671,-0.5949071 1.3244671,-1.3224 0,-0.727492 -0.596974,-1.324467 -1.3244671,-1.324467 z m 0,0.529684 c 0.44151,0 0.7952999,0.353274 0.7952999,0.794783 0,0.4415101 -0.3537899,0.7927169 -0.7952999,0.7927169 -0.4415099,0 -0.7927159,-0.3512068 -0.7927159,-0.7927169 0,-0.441509 0.351206,-0.794783 0.7927159,-0.794783 z M 2.9042062,6.1484505 c -0.0059,4.498e-4 -0.01173,0.00119 -0.01757,0.00209 -0.574071,0.05906 -1.008402,0.1457849 -1.302763,0.2733691 -0.14718,0.06379 -0.279212,0.1256409 -0.359151,0.2986889 -0.03997,0.08652 -0.04386,0.207621 -0.0062,0.29869 0.03766,0.09107 0.09912,0.151864 0.162264,0.199471 0.252581,0.190428 0.61317,0.2649331 1.105358,0.3379639 0.492189,0.07303 1.098774,0.1152052 1.7461469,0.1152382 0.6473729,3.5e-5 1.253767,-0.04226 1.7461471,-0.1152382 0.4923797,-0.07298 0.8546819,-0.1478558 1.1074259,-0.3379639 0.06319,-0.04753 0.1244119,-0.106521 0.162264,-0.197404 0.03785,-0.09088 0.0336,-0.214044 -0.0062,-0.300757 C 7.162319,6.5491747 7.0298519,6.4877517 6.8827769,6.4239098 6.588627,6.2962256 6.155993,6.2096608 5.582081,6.1505407 c -0.3373159,-0.02749 -0.417754,0.46578 -0.05478,0.5271 0.4583901,0.04722 0.8437711,0.1224341 1.0655689,0.2010209 -0.153837,0.05573 -0.3805839,0.1103562 -0.6924649,0.1565802 -0.458519,0.06796 -1.0435591,0.109587 -1.6681152,0.1095539 -0.6245566,-2.33e-5 -1.2092966,-0.04154 -1.6675986,-0.1095441 -0.313349,-0.0465 -0.541283,-0.100779 -0.694532,-0.1565802 0.216607,-0.07165 0.60871,-0.1536488 1.069186,-0.2010209 0.345556,-0.05121 0.299121,-0.5267661 -0.03514,-0.5291669 z" color="#000" font-family="sans-serif" font-weight="400" overflow="visible" paint-order="fill markers stroke" white-space="normal" style="line-height:normal;font-variant-ligatures:normal;font-variant-position:normal;font-variant-caps:normal;font-variant-numeric:normal;font-variant-alternates:normal;font-feature-settings:normal;text-indent:0;text-align:start;text-decoration-line:none;text-decoration-style:solid;text-decoration-color:#000;text-transform:none;text-orientation:mixed;shape-padding:0;isolation:auto;mix-blend-mode:normal"/></svg>