<svg xmlns="http://www.w3.org/2000/svg" viewBox="0 0 64 64"><g data-name="web development"><rect width="48" height="33" x="8" y="11.5" fill="#a9dbf5"/><path fill="#43809f" fill-rule="evenodd" d="M60,44.552V44.5H4a8,8,0,0,0,8,8H52A8,8,0,0,0,60,44.552Z"/><path fill-rule="evenodd" d="M55,43.5H9v-31H55Zm5.053,2h0l-.05.053Zm-1.125,0H5.071A7.006,7.006,0,0,0,12,51.5H52A7,7,0,0,0,58.928,45.5ZM7,43.5H4a1,1,0,0,0-1,1,9,9,0,0,0,9,9H52a9,9,0,0,0,9-8.942l0,0,0-.06a1,1,0,0,0-1-1H57v-32a1,1,0,0,0-1-1H8a1,1,0,0,0-1,1Z"/><path fill-rule="evenodd" d="M36 19.5H52a1 1 0 0 0 0-2H36a1 1 0 0 0 0 2zM36 31.5H52a1 1 0 0 0 0-2H36a1 1 0 0 0 0 2zM36 23.5H52a1 1 0 0 0 0-2H36a1 1 0 0 0 0 2zM36 35.5H52a1 1 0 0 0 0-2H36a1 1 0 0 0 0 2zM36 39.5H52a1 1 0 0 0 0-2H36a1 1 0 0 0 0 2zM36 27.5H52a1 1 0 0 0 0-2H36a1 1 0 0 0 0 2z"/><circle cx="22" cy="28.5" r="10" fill="#ffc328"/><path fill-rule="evenodd" d="M25.332,20.138A18.433,18.433,0,0,1,26.98,27.5h3.965A9.013,9.013,0,0,0,25.332,20.138ZM24.98,27.5H19.02a15.8,15.8,0,0,1,1.5-6.591,3.874,3.874,0,0,1,.86-1.13.837.837,0,0,1,1.248,0,3.874,3.874,0,0,1,.86,1.13A15.8,15.8,0,0,1,24.98,27.5Zm-6.312-7.362A9.017,9.017,0,0,0,13.055,27.5H17.02A18.451,18.451,0,0,1,18.668,20.138ZM17.02,29.5H13.055a9.013,9.013,0,0,0,5.613,7.362A18.433,18.433,0,0,1,17.02,29.5Zm13.925,0H26.98a18.451,18.451,0,0,1-1.648,7.362A9.017,9.017,0,0,0,30.945,29.5Zm-5.965,0a15.8,15.8,0,0,1-1.5,6.591,3.874,3.874,0,0,1-.86,1.13.837.837,0,0,1-1.248,0,3.874,3.874,0,0,1-.86-1.13,15.8,15.8,0,0,1-1.5-6.591ZM22,17.5a11,11,0,1,0,11,11A11.005,11.005,0,0,0,22,17.5Z"/></g></svg>