<?xml version="1.0" encoding="UTF-8"?><!DOCTYPE svg PUBLIC "-//W3C//DTD SVG 1.1//EN" "http://www.w3.org/Graphics/SVG/1.1/DTD/svg11.dtd"><svg xmlns="http://www.w3.org/2000/svg" xmlns:xlink="http://www.w3.org/1999/xlink" width="32" height="32" viewBox="0 0 32 32" fill="#000"><path d="M17 2C8.716 2 2 8.716 2 17s6.716 15 15 15 15-6.716 15-15S25.284 2 17 2zm8 22H9a1 1 0 0 1 0-2h16a1 1 0 0 1 0 2zm0-6H9a1 1 0 0 1 0-2h16a1 1 0 0 1 0 2zm0-6H9a1 1 0 0 1 0-2h16a1 1 0 0 1 0 2z"/><metadata><rdf:RDF xmlns:rdf="http://www.w3.org/1999/02/22-rdf-syntax-ns#" xmlns:rdfs="http://www.w3.org/2000/01/rdf-schema#" xmlns:dc="http://purl.org/dc/elements/1.1/"><rdf:Description about="https://iconscout.com/legal#licenses" dc:title="menu,circle,alt" dc:description="menu,circle,alt" dc:publisher="Iconscout" dc:date="2017-09-25" dc:format="image/svg+xml" dc:language="en"><dc:creator><rdf:Bag><rdf:li>Elegant Themes</rdf:li></rdf:Bag></dc:creator></rdf:Description></rdf:RDF></metadata></svg>