<svg xmlns="http://www.w3.org/2000/svg" width="36" height="36" viewBox="0 0 36 36"><g transform="translate(-424.111 -14.362)"><rect width="36" height="36" x="424.111" y="14.362" fill="#25b39e" color="#000" opacity=".97" overflow="visible" rx="3" style="isolation:auto;mix-blend-mode:normal" ry="3"/><g transform="translate(579.126 -1118.014)"><g transform="translate(-151.515 114.5)"><path d="m 0.99997932,1023.8622 c -0.27613,0 -0.49997,0.2239 -0.49999995,0.5 l 0,25 c 2.995e-5,0.2761 0.22386995,0.5 0.49999995,0.5 l 24.99156668,0 c 0.27613,0 0.49997,-0.2239 0.5,-0.5 l 0,-25 c -3e-5,-0.2761 -0.22387,-0.5 -0.5,-0.5 z" color="#000" font-family="sans-serif" font-weight="400" opacity=".15" overflow="visible" white-space="normal" style="line-height:normal;text-indent:0;text-align:start;text-decoration-line:none;text-decoration-style:solid;text-decoration-color:#000;text-transform:none;block-progression:tb;isolation:auto;mix-blend-mode:normal"/><path fill="#e9eded" style="isolation:auto;mix-blend-mode:normal" d="m 2.4999803,1025.8622 23.9915717,0 0,22 -23.9915717,0 z" color="#000" overflow="visible"/><path fill="#f05542" d="m 3.4999703,1026.8622 21.9915867,0 0,20 -21.9915867,0 z" color="#000" overflow="visible" style="isolation:auto;mix-blend-mode:normal"/><path fill="#2b4255" style="line-height:normal;text-indent:0;text-align:start;text-decoration-line:none;text-decoration-style:solid;text-decoration-color:#000;text-transform:none;block-progression:tb;isolation:auto;mix-blend-mode:normal" d="m 1.9999803,1022.8622 c -0.27613,0 -0.49997,0.2239 -0.5,0.5 l 0,25 c 3e-5,0.2761 0.22387,0.5 0.5,0.5 l 24.9915667,0 c 0.27613,0 0.49997,-0.2239 0.5,-0.5 l 0,-25 c -3e-5,-0.2761 -0.22387,-0.5 -0.5,-0.5 z m 0.5,3 23.9915667,0 0,22 -23.9915667,0 z" color="#000" font-family="sans-serif" font-weight="400" overflow="visible" white-space="normal"/><circle style="isolation:auto;mix-blend-mode:normal" cx="4" cy="1024.362" r=".5" fill="#f8b74e" fill-opacity=".976" color="#000" overflow="visible"/><circle cx="6" cy="1024.362" r=".5" fill="#25b39e" color="#000" overflow="visible" style="isolation:auto;mix-blend-mode:normal"/><circle style="isolation:auto;mix-blend-mode:normal" cx="8" cy="1024.362" r=".5" fill="#f05542" color="#000" overflow="visible"/></g><ellipse style="isolation:auto;mix-blend-mode:normal" cx="-910.316" cy="721.703" fill="#e9eded" color="#000" overflow="visible" rx="5.547" ry="5.458" transform="rotate(-45)"/><path d="m -132,1146.3622 0,14 3,0 0,-14 -3,0 z m -10,1 0,13 3,0 0,-13 -3,0 z m 5,4 0,9 3,0 0,-9 -3,0 z m -10,3 0,6 3,0 0,-6 -3,0 z" color="#000" opacity=".15" overflow="visible" style="isolation:auto;mix-blend-mode:normal"/><rect style="isolation:auto;mix-blend-mode:normal" width="3" height="9" x="-136.015" y="1151.362" fill="#34485c" color="#000" overflow="visible" ry="0"/><rect style="isolation:auto;mix-blend-mode:normal" width="3" height="6" x="-146.015" y="1154.362" fill="#34485c" color="#000" overflow="visible" ry="0"/><rect width="3" height="4" x="-146.015" y="1156.362" fill="#25b39e" color="#000" overflow="visible" ry="0" style="isolation:auto;mix-blend-mode:normal"/><rect width="3" height="13" x="-141.015" y="1147.362" fill="#34485c" color="#000" overflow="visible" ry="0" style="isolation:auto;mix-blend-mode:normal"/><rect style="isolation:auto;mix-blend-mode:normal" width="3" height="7" x="-141.015" y="1153.362" fill="#25b39e" color="#000" overflow="visible" ry="0"/><rect width="3" height="7" x="-136.015" y="1153.362" fill="#25b39e" color="#000" overflow="visible" ry="0" style="isolation:auto;mix-blend-mode:normal"/><rect width="3" height="14" x="-131.015" y="1146.362" fill="#34485c" color="#000" overflow="visible" ry="0" style="isolation:auto;mix-blend-mode:normal"/><rect style="isolation:auto;mix-blend-mode:normal" width="3" height="12" x="-131.015" y="1148.362" fill="#25b39e" color="#000" overflow="visible" ry="0"/><path fill-rule="evenodd" d="m -134.32711,1148.0067 c -1.53698,0.012 -3.07865,0.6102 -4.25586,1.7871 -2.35442,2.3544 -2.38836,6.1624 -0.0625,8.4883 2.20788,2.2078 5.74927,2.2846 8.11719,0.2735 l 1.43164,1.4316 a 1.2048802,1.2048702 0 0 0 0.28711,1.2832 l 4.72656,4.7266 a 1.2050141,1.2050041 0 0 0 1.70508,-1.7032 l -4.72656,-4.7265 a 1.2048802,1.2048702 0 0 0 -1.28516,-0.2871 l -1.43164,-1.4317 c 2.01207,-2.3679 1.93469,-5.909 -0.27344,-8.1172 -1.16293,-1.1629 -2.69544,-1.7368 -4.23242,-1.7246 z m 0.004,0.9942 c 1.27898,-0.011 2.55274,0.4685 3.52149,1.4375 1.93748,1.9375 1.9159,5.0958 -0.0625,7.0742 -1.97841,1.9784 -5.13674,2.0001 -7.07422,0.062 -1.93748,-1.9375 -1.9159,-5.0958 0.0625,-7.0742 0.98919,-0.9892 2.27375,-1.4893 3.55273,-1.5 z" color="#000" font-family="sans-serif" font-weight="400" opacity=".15" overflow="visible" white-space="normal" style="line-height:normal;text-indent:0;text-align:start;text-decoration-line:none;text-decoration-style:solid;text-decoration-color:#000;text-transform:none;block-progression:tb;isolation:auto;mix-blend-mode:normal"/><path fill="#f8b74e" fill-opacity=".98" fill-rule="evenodd" d="m -133.32711,1148.0067 c -1.53698,0.012 -3.07865,0.6102 -4.25586,1.7871 -2.35442,2.3544 -2.38836,6.1624 -0.0625,8.4883 2.20788,2.2078 5.74927,2.2846 8.11719,0.2735 l 1.43164,1.4316 a 1.2048802,1.2048702 0 0 0 0.28711,1.2832 l 4.72656,4.7266 a 1.2048802,1.2048702 0 1 0 1.70313,-1.7032 l -4.72657,-4.7265 a 1.2048802,1.2048702 0 0 0 -1.2832,-0.2871 l -1.43164,-1.4317 c 2.01136,-2.3679 1.93444,-5.9093 -0.27344,-8.1172 -1.16293,-1.1629 -2.69544,-1.7368 -4.23242,-1.7246 z m 0.004,0.9942 c 1.27898,-0.011 2.55274,0.4685 3.52149,1.4375 1.93749,1.9375 1.9159,5.0958 -0.0625,7.0742 -1.97841,1.9784 -5.13674,2.0001 -7.07422,0.062 -1.93748,-1.9375 -1.9159,-5.0958 0.0625,-7.0742 0.98919,-0.9892 2.27375,-1.4893 3.55273,-1.5 z" color="#000" font-family="sans-serif" font-weight="400" overflow="visible" white-space="normal" style="line-height:normal;text-indent:0;text-align:start;text-decoration-line:none;text-decoration-style:solid;text-decoration-color:#000;text-transform:none;block-progression:tb;isolation:auto;mix-blend-mode:normal"/></g></g></svg>