<svg height="512" viewBox="0 0 128 128" width="512" xmlns="http://www.w3.org/2000/svg"><path d="m114.263 15.557h-96.526a8.008 8.008 0 0 0 -8 8v66.26a8.009 8.009 0 0 0 8 8h36.843l-1.806 12.088h-9.293a3.159 3.159 0 0 0 -3.156 3.156v.227a3.159 3.159 0 0 0 3.156 3.155h45.037a3.159 3.159 0 0 0 3.157-3.155v-.227a3.159 3.159 0 0 0 -3.157-3.156h-9.293l-1.806-12.088h36.844a8.009 8.009 0 0 0 8-8v-66.26a8.009 8.009 0 0 0 -8-8z" fill="#e6e7e8"/><rect fill="#6dc9f7" height="80.26" rx="7" width="110.526" x="6.737" y="12.557"/><path d="m110.263 12.557h-96.526a7 7 0 0 0 -7 7v59.6h110.526v-59.6a7 7 0 0 0 -7-7z" fill="#d4fbff"/><path d="m110.263 12.557h-96.526a7 7 0 0 0 -7 7v3a7 7 0 0 1 7-7h96.526a7 7 0 0 1 7 7v-3a7 7 0 0 0 -7-7z" fill="#fff"/><rect fill="#0089ef" height="4.539" rx="2.156" width="49.349" x="37.325" y="106.905"/><path d="m72.258 92.817h-20.517l-2.105 14.088h24.728z" fill="#0089ef"/><path d="m93.228 83.491a2.106 2.106 0 1 0 2.105 2.109 2.105 2.105 0 0 0 -2.105-2.109z" fill="#fff"/><path d="m100.6 83.491a2.106 2.106 0 1 0 2.1 2.109 2.106 2.106 0 0 0 -2.1-2.109z" fill="#0089ef"/><path d="m107.965 83.491a2.106 2.106 0 1 0 2.1 2.106 2.105 2.105 0 0 0 -2.1-2.106z" fill="#fa759e"/><path d="m105.537 58.939 2.421-13.308a1.53 1.53 0 0 0 -1.506-1.8h-32.915l2.978 16.369h27.516a1.53 1.53 0 0 0 1.506-1.261z" fill="#0089ef"/><path d="m106.56 37.311v-3.332a.927.927 0 0 0 -.927-.928h-2.243a12.9 12.9 0 0 0 -1.89-4.551l1.588-1.588a.928.928 0 0 0 0-1.312l-2.356-2.356a.928.928 0 0 0 -1.312 0l-1.588 1.588a12.882 12.882 0 0 0 -4.556-1.891v-2.247a.929.929 0 0 0 -.928-.928h-3.332a.929.929 0 0 0 -.928.928v2.242a12.882 12.882 0 0 0 -4.556 1.891l-1.588-1.588a.928.928 0 0 0 -1.312 0l-2.356 2.361a.928.928 0 0 0 0 1.312l1.588 1.588a12.9 12.9 0 0 0 -1.89 4.556h-2.243a.927.927 0 0 0 -.927.928v3.332a.927.927 0 0 0 .927.927h2.243a12.9 12.9 0 0 0 1.89 4.557l-1.588 1.587a.928.928 0 0 0 0 1.312l2.356 2.356a.926.926 0 0 0 1.312 0l1.588-1.587a12.9 12.9 0 0 0 4.556 1.89v2.242a.928.928 0 0 0 .928.928h3.332a.928.928 0 0 0 .928-.928v-2.247a12.9 12.9 0 0 0 4.556-1.89l1.588 1.587a.926.926 0 0 0 1.312 0l2.356-2.356a.928.928 0 0 0 0-1.312l-1.588-1.582a12.9 12.9 0 0 0 1.89-4.557h2.243a.927.927 0 0 0 .927-.932zm-15.878 5.925a7.591 7.591 0 1 1 7.591-7.591 7.592 7.592 0 0 1 -7.591 7.591z" fill="#fa759e"/><path d="m34.069 59.808v.042a2.415 2.415 0 0 1 -3.375 2.216l-13.607-5.9a3.464 3.464 0 0 1 -2.087-3.177v-.038a3.464 3.464 0 0 1 2.087-3.179l13.607-5.9a2.415 2.415 0 0 1 3.375 2.216v.066a2.413 2.413 0 0 1 -1.546 2.253l-11.741 4.525 11.757 4.629a2.416 2.416 0 0 1 1.53 2.247z" fill="#fa759e"/><path d="m44.821 38.427a2.244 2.244 0 0 0 -2.709 1.654l-5.983 24.724a2.245 2.245 0 0 0 1.653 2.708 2.273 2.273 0 0 0 .53.064 2.236 2.236 0 0 0 2.178-1.717l5.984-24.724a2.247 2.247 0 0 0 -1.653-2.709z" fill="#fa759e"/><path d="m65.521 56.12-13.609 5.925a2.415 2.415 0 0 1 -3.379-2.214v-.031a2.415 2.415 0 0 1 1.533-2.248l11.794-4.632-11.783-4.559a2.416 2.416 0 0 1 -1.544-2.252 2.416 2.416 0 0 1 3.372-2.218l13.605 5.87a3.466 3.466 0 0 1 2.09 3.182 3.465 3.465 0 0 1 -2.079 3.177z" fill="#fa759e"/><g fill="#3a2c60"><path d="m29.5 78.155h-9.25a1 1 0 0 0 0 2h9.25a1 1 0 0 0 0-2z"/><path d="m110.262 11.557h-96.525a8.009 8.009 0 0 0 -8 8v66.26a8.009 8.009 0 0 0 8 8h36.843l-1.806 12.088h-9.293a3.159 3.159 0 0 0 -3.156 3.156v.227a3.159 3.159 0 0 0 3.156 3.155h45.037a3.159 3.159 0 0 0 3.157-3.155v-.227a3.159 3.159 0 0 0 -3.157-3.156h-9.292l-1.807-12.088h36.843a8.009 8.009 0 0 0 8-8v-66.26a8.009 8.009 0 0 0 -8-8zm-24.587 97.5v.227a1.157 1.157 0 0 1 -1.157 1.155h-45.037a1.157 1.157 0 0 1 -1.156-1.155v-.227a1.157 1.157 0 0 1 1.156-1.156h45.037a1.157 1.157 0 0 1 1.157 1.16zm-12.475-3.152h-22.4l1.8-12.088h18.8zm37.058-14.088h-96.521a6.006 6.006 0 0 1 -6-6v-5.662h7.263a1 1 0 0 0 0-2h-7.263v-58.6a6.006 6.006 0 0 1 6-6h96.525a6.006 6.006 0 0 1 6 6v58.6h-81.262a1 1 0 0 0 0 2h81.262v5.662a6.006 6.006 0 0 1 -6 6z"/><path d="m82.91 66.542a3.684 3.684 0 1 0 3.684 3.684 3.688 3.688 0 0 0 -3.684-3.684zm0 5.368a1.684 1.684 0 1 1 1.684-1.684 1.685 1.685 0 0 1 -1.684 1.684z"/><path d="m96.531 66.542a3.684 3.684 0 1 0 3.685 3.684 3.688 3.688 0 0 0 -3.685-3.684zm0 5.368a1.684 1.684 0 1 1 1.685-1.684 1.685 1.685 0 0 1 -1.685 1.684z"/><path d="m66.6 39.735h5.173l4.685 25.746a1 1 0 0 0 .983.821h24.769a1 1 0 0 0 0-2h-23.931l-.565-3.102h26.317a2.527 2.527 0 0 0 2.489-2.078l2.421-13.308a2.528 2.528 0 0 0 -2.488-2.983h-3.507l-.179-.179a13.782 13.782 0 0 0 1.416-3.41h1.45a1.929 1.929 0 0 0 1.927-1.927v-3.336a1.93 1.93 0 0 0 -1.927-1.928h-1.45a13.782 13.782 0 0 0 -1.416-3.41l1.028-1.027a1.929 1.929 0 0 0 0-2.726l-2.356-2.356a1.929 1.929 0 0 0 -2.726 0l-1.028 1.027a13.794 13.794 0 0 0 -3.409-1.415v-1.45a1.93 1.93 0 0 0 -1.929-1.927h-3.331a1.929 1.929 0 0 0 -1.927 1.927v1.45a13.8 13.8 0 0 0 -3.411 1.415l-1.027-1.027a1.93 1.93 0 0 0 -2.725 0l-2.357 2.356a1.929 1.929 0 0 0 0 2.726l1.031 1.027a13.82 13.82 0 0 0 -1.416 3.41h-1.453a1.931 1.931 0 0 0 -1.931 1.928v3.332a1.93 1.93 0 0 0 1.928 1.927h1.452a13.82 13.82 0 0 0 1.416 3.41l-.178.179h-4.046l-.778-4.271a1 1 0 0 0 -.983-.821h-6.011a1 1 0 0 0 0 2zm11.37-2.5h-2.17v-3.184h2.17a1 1 0 0 0 .981-.8 11.853 11.853 0 0 1 1.744-4.2 1 1 0 0 0 -.127-1.259l-1.537-1.537 2.257-2.255 1.537 1.536a1 1 0 0 0 1.259.127 11.832 11.832 0 0 1 4.2-1.744 1 1 0 0 0 .8-.98v-2.17h3.187v2.17a1 1 0 0 0 .8.98 11.816 11.816 0 0 1 4.2 1.743 1 1 0 0 0 1.26-.126l1.545-1.536 2.254 2.254-1.537 1.537a1 1 0 0 0 -.127 1.259 11.871 11.871 0 0 1 1.744 4.2 1 1 0 0 0 .98.8h2.17v3.187h-2.17a1 1 0 0 0 -.98.8 11.835 11.835 0 0 1 -1.744 4.2 1 1 0 0 0 .127 1.259l1.537 1.537-2.254 2.254-1.537-1.537a1 1 0 0 0 -1.26-.127 11.836 11.836 0 0 1 -4.2 1.744 1 1 0 0 0 -.8.98v2.17h-3.19v-2.17a1 1 0 0 0 -.8-.98 11.85 11.85 0 0 1 -4.2-1.744 1 1 0 0 0 -1.259.127l-1.536 1.536-2.255-2.253 1.532-1.533a1 1 0 0 0 .127-1.259 11.816 11.816 0 0 1 -1.744-4.2 1 1 0 0 0 -.981-.803zm-.948 7.589a1.917 1.917 0 0 0 .544 1.574l2.357 2.356a1.927 1.927 0 0 0 2.725 0l1.027-1.026a13.84 13.84 0 0 0 3.411 1.415v1.457a1.93 1.93 0 0 0 1.927 1.928h3.331a1.931 1.931 0 0 0 1.932-1.928v-1.454a13.794 13.794 0 0 0 3.409-1.415l1.028 1.026a1.929 1.929 0 0 0 2.726 0l2.361-2.357a1.913 1.913 0 0 0 .543-1.574h2.115a.53.53 0 0 1 .521.625l-2.426 13.309a.527.527 0 0 1 -.521.435h-26.682l-2.615-14.368z"/><path d="m90.682 44.236a8.591 8.591 0 1 0 -8.591-8.591 8.6 8.6 0 0 0 8.591 8.591zm0-15.182a6.591 6.591 0 1 1 -6.591 6.591 6.6 6.6 0 0 1 6.591-6.591z"/><path d="m35.069 59.85v-.042a3.4 3.4 0 0 0 -2.164-3.178l-9.367-3.688 9.344-3.6a3.457 3.457 0 0 0 2.187-3.252 3.414 3.414 0 0 0 -4.769-3.133l-13.608 5.9a4.493 4.493 0 0 0 0 8.23l13.608 5.9a3.414 3.414 0 0 0 4.772-3.133zm-2 0a1.415 1.415 0 0 1 -1.977 1.3l-13.608-5.9a2.495 2.495 0 0 1 0-4.562l13.608-5.9a1.423 1.423 0 0 1 .567-.12 1.406 1.406 0 0 1 .771.235 1.469 1.469 0 0 1 -.267 2.569l-11.74 4.528a1 1 0 0 0 -.007 1.864l11.757 4.629a1.405 1.405 0 0 1 .9 1.316z"/><path d="m35.542 67.022a3.242 3.242 0 0 0 5.92-.927l5.984-24.724a3.244 3.244 0 1 0 -6.306-1.526l-5.983 24.724a3.221 3.221 0 0 0 .385 2.453zm1.558-1.981 5.984-24.725a1.237 1.237 0 0 1 1.5-.917 1.246 1.246 0 0 1 .917 1.5l-5.983 24.726a1.258 1.258 0 0 1 -1.5.917 1.248 1.248 0 0 1 -.917-1.5z"/><path d="m49.717 49.294 9.389 3.632-9.406 3.693a3.43 3.43 0 1 0 2.61 6.343l13.61-5.925a4.466 4.466 0 0 0 -.014-8.194l-13.606-5.87a3.415 3.415 0 1 0 -2.584 6.321zm.454-4.368a1.4 1.4 0 0 1 .773-.235 1.428 1.428 0 0 1 .565.118l13.605 5.87a2.465 2.465 0 0 1 .008 4.524l-13.61 5.925a1.391 1.391 0 0 1 -1.338-.113 1.442 1.442 0 0 1 .257-2.534l11.794-4.631a1 1 0 0 0 -.005-1.863l-11.783-4.559a1.416 1.416 0 0 1 -.266-2.5z"/></g></svg>