<svg xmlns="http://www.w3.org/2000/svg" enable-background="new 0 0 66 66" viewBox="0 0 66 66"><rect width="18.8" height="25" x="1.2" y="35.6" fill="#D5B79F"/><rect width="9.4" height="25" x="1.2" y="35.6" fill="#C6A28A"/><rect width="1.9" height="1.9" x="16.7" y="37" fill="#C6A28A"/><rect width="1.9" height="1.9" x="16.7" y="40.4" fill="#C6A28A"/><rect width="1.9" height="1.9" x="16.7" y="43.8" fill="#C6A28A"/><rect width="1.9" height="1.9" x="16.7" y="47.2" fill="#C6A28A"/><rect width="1.9" height="1.9" x="16.7" y="50.6" fill="#C6A28A"/><rect width="1.9" height="1.9" x="16.7" y="53.9" fill="#C6A28A"/><rect width="1.9" height="1.9" x="16.7" y="57.3" fill="#C6A28A"/><rect width="1.9" height="1.9" x="2.6" y="37" fill="#D5B79F"/><rect width="1.9" height="1.9" x="2.6" y="40.4" fill="#D5B79F"/><rect width="1.9" height="1.9" x="2.6" y="43.8" fill="#D5B79F"/><rect width="1.9" height="1.9" x="2.6" y="47.2" fill="#D5B79F"/><rect width="1.9" height="1.9" x="2.6" y="50.6" fill="#D5B79F"/><rect width="1.9" height="1.9" x="2.6" y="53.9" fill="#D5B79F"/><rect width="1.9" height="1.9" x="2.6" y="57.3" fill="#D5B79F"/><rect width="9.6" height="10.1" x="5.8" y="37" fill="#C6A28A"/><rect width="9.6" height="10.1" x="5.8" y="49.1" fill="#C6A28A"/><rect width="4.8" height="10.1" x="5.8" y="37" fill="#D5B79F"/><rect width="4.8" height="10.1" x="5.8" y="49.1" fill="#D5B79F"/><path fill="#D4D8DB" d="M40.4,15.3c-0.1-3.1-2.6-5.5-5.7-5.5c-0.6,0-1.2,0.1-1.8,0.3c-1.1-2.6-3.7-4.4-6.6-4.4
		c-0.8,0-1.6,0.1-2.3,0.4c-1.7-2.5-4.6-4.1-7.9-4.1c-5.3,0-9.6,4.3-9.6,9.6c0,0.4,0,0.7,0.1,1.1C3.2,14.2,1,17.4,1,21.2
		c0,5.3,4.3,9.6,9.6,9.6c2.3,0,4.4-0.8,6-2.1c1.4,1.2,3.2,2,5.1,2c1.7,0,3.2-0.5,4.5-1.5c1.3,0.9,2.8,1.5,4.5,1.5
		c1.9,0,3.7-0.7,5.1-1.9c1,0.5,2.2,0.8,3.4,0.8c4,0,7.2-3.2,7.2-7.2C46.5,18.8,43.8,15.8,40.4,15.3z"/><path fill="#E6E6E8" d="M40.4,16.7c-0.1-3.1-2.6-5.5-5.7-5.5c-0.6,0-1.2,0.1-1.8,0.3c-1.1-2.6-3.7-4.4-6.6-4.4
		c-0.8,0-1.6,0.1-2.3,0.4C18.5-0.2,6.3,3.6,6.3,13c0,0.4,0,0.7,0.1,1.1C3.2,15.7,1,18.9,1,22.7c0,5.3,4.3,9.6,9.6,9.6
		c2.3,0,4.4-0.8,6-2.1c1.4,1.2,3.2,2,5.1,2c1.7,0,3.2-0.5,4.5-1.5c1.3,0.9,2.8,1.5,4.5,1.5c1.9,0,3.7-0.7,5.1-1.9
		c1,0.5,2.2,0.8,3.4,0.8c4,0,7.2-3.2,7.2-7.2C46.5,20.3,43.8,17.3,40.4,16.7z"/><path fill="#3B4C56" d="M49.6,20.1H14c-0.7,0-1.2,0.6-1.2,1.2v25c0,0.7,0.6,1.2,1.2,1.2h35.6c0.7,0,1.2-0.6,1.2-1.2v-25
		C50.8,20.6,50.2,20.1,49.6,20.1z"/><path fill="#465C6A" d="M31.7,20.1H14c-0.7,0-1.2,0.6-1.2,1.2v25c0,0.7,0.6,1.2,1.2,1.2h17.7V20.1z"/><path fill="#E8664A" d="M49.6,20.1H14c-0.7,0-1.2,0.6-1.2,1.2v19.8h38V21.3C50.8,20.6,50.2,20.1,49.6,20.1z"/><path fill="#D95239" d="M31.7,20.1H14c-0.7,0-1.2,0.6-1.2,1.2v19.8h19V20.1z"/><path fill="#FFF" d="M36.6,30.4l-8.1-4.7c-0.4-0.2-0.9,0.1-0.9,0.5v9.5c0,0.4,0.5,0.7,0.9,0.5l8.1-4.7
		C37,31.2,37,30.6,36.6,30.4z"/><rect width="26.1" height="1.2" x="19" y="43.7" fill="#FFF"/><g><circle cx="24.5" cy="44.2" r="2" fill="#FAD22C"/><circle cx="24.5" cy="44.2" r="1.2" fill="#E0B624"/><path fill="#E0B624" d="M24.5,42.2v4c1.1,0,2-0.9,2-2C26.5,43.1,25.6,42.2,24.5,42.2z"/><path fill="#FAD22C" d="M24.5,43v2.4c0.7,0,1.2-0.5,1.2-1.2C25.7,43.5,25.2,43,24.5,43z"/></g><g><path fill="#D5B79F" d="M44.3,40.5c-0.8,0.1-1.4,0.8-1.4,1.7v4.5h-0.4v-5.4c0-0.8-0.6-1.6-1.4-1.7c-1-0.1-1.8,0.7-1.8,1.6v5.5
			h-0.4v-5.8c0-0.8-0.6-1.6-1.4-1.7c-1-0.1-1.8,0.7-1.8,1.6v5.9h-0.4V33.7c0-0.8-0.6-1.6-1.4-1.7c-1-0.1-1.8,0.7-1.8,1.6
			c0,1.7,0-6.1,0,16.4L31,48.7c-0.7-0.9-2-1.1-2.9-0.4c-0.9,0.7-1.1,2-0.4,2.9l4.5,5.6l1.8,4.1l10.5,0.3c0.6-1.5,1.6-2.9,1.6-5.3
			c0-0.1,0-9.5,0-9.2v-4.6C46.1,41.2,45.3,40.4,44.3,40.5z"/><rect width="15.7" height="5.2" x="31.5" y="59.7" fill="#A3CD44"/><rect width="7.9" height="5.2" x="31.5" y="59.7" fill="#6FAC43"/></g><g><rect width="6.9" height="4.5" x="54.5" y="16.4" fill="#3B4C56"/><rect width="6.9" height="2.4" x="54.5" y="18.5" fill="#465C6A"/><path fill="#465C6A" d="M57.4,11.7H41.5c-0.9,0-1.7,0.8-1.7,1.7v10.4c0,0.9,0.8,1.7,1.7,1.7h15.8c0.9,0,1.7-0.8,1.7-1.7V13.4
			C59.1,12.5,58.3,11.7,57.4,11.7z"/><path fill="#3B4C56" d="M41.5,11.7c-0.9,0-1.7,0.8-1.7,1.7v5.3h9.8v-7.1H41.5z"/><path fill="#3B4C56" d="M49.3,18.5v7.1h8.1c0.9,0,1.7-0.8,1.7-1.7v-5.3H49.3z"/><path fill="#465C6A" d="M64.6,14.9l-3.1,1.5v4.5l3.1,1.5c0.2,0.1,0.4,0,0.4-0.3v-6.9C65,15,64.8,14.9,64.6,14.9z"/><path fill="#3B4C56" d="M61.5,18.5v2.4l3.1,1.5c0.2,0.1,0.4,0,0.4-0.3v-3.6H61.5z"/></g><g><circle cx="31.5" cy="7.9" r="6.7" fill="#1E87B7"/><circle cx="31.5" cy="7.9" r="4.6" fill="#1576AC"/><path fill="#1576AC" d="M31.6,1.2v13.4c3.7,0,6.7-3,6.7-6.7C38.3,4.2,35.3,1.2,31.6,1.2z"/><path fill="#1E87B7" d="M31.6,3.3v9.2c2.5,0,4.5-2.1,4.5-4.6C36.1,5.4,34.1,3.4,31.6,3.3z"/><g><path fill="#FFF" d="M28.3 9.5V6.3h.5v1.4h1.6V6.3H31v3.2h-.5V8.2h-1.6v1.3H28.3zM34.8 7.9c0 1-.6 1.6-1.8 1.6h-1.1V6.3H33C34.1 6.3 34.8 6.8 34.8 7.9zM34.2 7.9c0-.7-.4-1.1-1.3-1.1h-.5V9H33C33.8 9 34.2 8.6 34.2 7.9z"/></g></g></svg>