<?xml version="1.0" encoding="UTF-8" standalone="no"?>
<svg xmlns:dc="http://purl.org/dc/elements/1.1/" xmlns:cc="http://creativecommons.org/ns#" xmlns:rdf="http://www.w3.org/1999/02/22-rdf-syntax-ns#" xmlns:svg="http://www.w3.org/2000/svg" xmlns="http://www.w3.org/2000/svg" xmlns:sodipodi="http://sodipodi.sourceforge.net/DTD/sodipodi-0.dtd" xmlns:inkscape="http://www.inkscape.org/namespaces/inkscape" version="1.1" id="Layer_1" x="0px" y="0px" viewBox="0 0 16 16" style="enable-background:new 0 0 16 16;" xml:space="preserve" inkscape:version="0.91 r13725" sodipodi:docname="!6x16 Medium Line-17.svg"><defs id="defs11"/><sodipodi:namedview pagecolor="#ffffff" bordercolor="#666666" borderopacity="1" objecttolerance="10" gridtolerance="10" guidetolerance="10" inkscape:pageopacity="0" inkscape:pageshadow="2" inkscape:window-width="1366" inkscape:window-height="705" id="namedview9" showgrid="true" inkscape:zoom="14.75" inkscape:cx="-1.0169492" inkscape:cy="8" inkscape:window-x="-8" inkscape:window-y="-8" inkscape:window-maximized="1" inkscape:current-layer="Layer_1"><inkscape:grid type="xygrid" id="grid4141"/></sodipodi:namedview><style type="text/css" id="style3">
	.st0{fill:none;stroke:#231F20;stroke-miterlimit:10;}
	.st1{fill:none;stroke:#231F20;stroke-linecap:round;stroke-linejoin:round;stroke-miterlimit:10;}
	.st2{fill:#231F20;}
</style><path style="fill:#231f20;stroke:none" d="M 8 0.98632812 C 4.133 0.98632812 0.98632813 4.133 0.98632812 8 C 0.98632812 9.874 1.7160156 11.634984 3.0410156 12.958984 C 4.3650156 14.283984 6.127 15.013672 8 15.013672 C 11.867 15.013672 15.013672 11.867 15.013672 8 C 15.013672 4.133 11.867 0.98632813 8 0.98632812 z M 8 1.9863281 C 11.315 1.9863281 14.013672 4.684 14.013672 8 C 14.013672 9.573 13.400203 11.001219 12.408203 12.074219 C 11.721203 11.260219 10.83375 10.661312 9.84375 10.320312 C 10.51475 9.7693125 10.953125 8.9401406 10.953125 7.9941406 C 10.953125 6.3461406 9.6124063 5.0058594 7.9414062 5.0058594 C 6.2944062 5.0058594 4.953125 6.3455781 4.953125 8.0175781 C 4.953125 8.9465781 5.3886406 9.7684062 6.0566406 10.316406 C 5.0866406 10.648406 4.21225 11.228672 3.53125 12.013672 C 2.53625 10.908672 1.9863281 9.498 1.9863281 8 C 1.9863281 4.684 4.685 1.9863281 8 1.9863281 z M 7.9648438 6.0058594 C 9.0618437 6.0058594 9.953125 6.8975781 9.953125 8.0175781 C 9.953125 9.0915781 9.0952969 9.965 8.0292969 10 C 8.0002969 10 7.9723594 9.9941406 7.9433594 9.9941406 C 7.9183594 9.9941406 7.8941406 9.999 7.8691406 10 C 6.8061406 9.96 5.953125 9.0891406 5.953125 7.9941406 C 5.953125 6.8981406 6.8448437 6.0058594 7.9648438 6.0058594 z M 7.8691406 10.998047 C 7.8931406 10.999047 7.9174062 11.005859 7.9414062 11.005859 L 7.9648438 11.005859 C 7.9868438 11.005859 8.0053438 10.999047 8.0273438 10.998047 C 9.4463438 11.023047 10.770922 11.667 11.669922 12.75 C 10.653922 13.539 9.383 14.013672 8 14.013672 C 6.623 14.013672 5.3178125 13.550125 4.2578125 12.703125 C 5.1578125 11.647125 6.4711406 11.020047 7.8691406 10.998047 z " id="path7"/>
	<metadata>
		<rdf:RDF xmlns:rdf="http://www.w3.org/1999/02/22-rdf-syntax-ns#" xmlns:rdfs="http://www.w3.org/2000/01/rdf-schema#" xmlns:dc="http://purl.org/dc/elements/1.1/">
			<rdf:Description about="https://admin.iconscout.com/legal#licenses" dc:title="17 user profie avatar male picture person" dc:description="17 user profie avatar male picture person" dc:publisher="Iconscout" dc:date="2017-04-23" dc:format="image/svg+xml" dc:language="en">
				<dc:creator>
					<rdf:Bag>
						<rdf:li>Dalpat Prajapati</rdf:li>
					</rdf:Bag>
				</dc:creator>
			</rdf:Description>
		</rdf:RDF>
    </metadata></svg>
